<svg xmlns="http://www.w3.org/2000/svg" xmlns:xlink="http://www.w3.org/1999/xlink" fill="none" version="1.1" width="196.5" height="52.5" viewBox="0 0 196.5 52.5"><g style="mix-blend-mode:passthrough" transform="matrix(-1,0,0,1,392,0)"><path d="M196,3C196,3,196,0.5,196,0.5C196,0.5,267,48,267,48C267,48,391.5,48,391.5,48C391.5,48,388.5,52,388.5,52C388.5,52,261,52,261,52C261,52,238,37.5,238,37.5C238,37.5,238,31.5,238,31.5C238,31.5,196,3,196,3C196,3,196,3,196,3Z" fill="#7774FA" fill-opacity="1"/><path d="M237.7192,31.9137L195.5,3.26496L195.5,-0.436084L267.278,47.5844L267,48L267,47.5L392.5,47.5L388.75,52.5L260.8555,52.5L237.5,37.7759L237.5,31.5L238,31.5L237.7192,31.9137ZM238.2808,31.0863L238.5,31.235L238.5,37.5L238,37.5L238.26670000000001,37.077L261.2666,51.577L261,52L261,51.5L388.5,51.5L388.5,52L388.1,51.7L391.1,47.7L391.5,48L391.5,48.5L266.8482,48.5L195.721975,0.915574L196,0.5L196.5,0.5L196.5,3L196,3L196.280751,2.58626L238.2808,31.0863Z" fill="#A4A3F2" fill-opacity="1"/></g></svg>