<svg xmlns="http://www.w3.org/2000/svg" xmlns:xlink="http://www.w3.org/1999/xlink" fill="none" version="1.1" width="94.50003051757812" height="13.000027656555176" viewBox="0 0 94.50003051757812 13.000027656555176"><g style="mix-blend-mode:passthrough"><path d="M1.25,0C0.559644,0,0,0.559644,0,1.25C0,1.94036,0.559644,2.5,1.25,2.5C1.25,2.5,1.25,0,1.25,0C1.25,0,1.25,0,1.25,0ZM82.25,1.25C82.25,1.25,83.1131,0.345806,83.1131,0.345806C83.1131,0.345806,82.7508,0,82.7508,0C82.7508,0,82.25,0,82.25,0C82.25,0,82.25,1.25,82.25,1.25C82.25,1.25,82.25,1.25,82.25,1.25ZM92.3869,12.6542C92.8863,13.1309,93.6775,13.1125,94.1542,12.6131C94.6309,12.1137,94.6125,11.3225,94.1131,10.8458C94.1131,10.8458,92.3869,12.6542,92.3869,12.6542C92.3869,12.6542,92.3869,12.6542,92.3869,12.6542ZM1.25,2.5C1.25,2.5,82.25,2.5,82.25,2.5C82.25,2.5,82.25,0,82.25,0C82.25,0,1.25,0,1.25,0C1.25,0,1.25,2.5,1.25,2.5C1.25,2.5,1.25,2.5,1.25,2.5ZM81.3869,2.15419C81.3869,2.15419,92.3869,12.6542,92.3869,12.6542C92.3869,12.6542,94.1131,10.8458,94.1131,10.8458C94.1131,10.8458,83.1131,0.345806,83.1131,0.345806C83.1131,0.345806,81.3869,2.15419,81.3869,2.15419C81.3869,2.15419,81.3869,2.15419,81.3869,2.15419Z" fill="#5089DF" fill-opacity="1"/></g></svg>