<svg xmlns="http://www.w3.org/2000/svg" xmlns:xlink="http://www.w3.org/1999/xlink" fill="none" version="1.1" width="724" height="24" viewBox="0 0 724 24"><defs><linearGradient x1="0.4917128086090088" y1="-5.063794002169164e-12" x2="0.4917128384113312" y2="1" id="master_svg0_0_1343"><stop offset="0%" stop-color="#1188F5" stop-opacity="1"/><stop offset="15.787678956985474%" stop-color="#0F7DFF" stop-opacity="0.41999998688697815"/><stop offset="51.82793140411377%" stop-color="#232E8B" stop-opacity="0.515625"/><stop offset="85.37026643753052%" stop-color="#5137B6" stop-opacity="0.8528965711593628"/><stop offset="100%" stop-color="#B28EFF" stop-opacity="1"/></linearGradient><linearGradient x1="0.49240344762802124" y1="4.266318269258336e-14" x2="0.49240344762802124" y2="1" id="master_svg1_0_1345"><stop offset="0%" stop-color="#5E9EFF" stop-opacity="1"/><stop offset="100%" stop-color="#7673FF" stop-opacity="1"/></linearGradient></defs><g style="mix-blend-mode:passthrough" transform="matrix(-1,0,0,1,1448,0)"><path d="M724,0C724,0,1429,0,1429,0C1429,0,1448,24,1448,24C1448,24,724,24,724,24C724,24,724,0,724,0C724,0,724,0,724,0Z" fill="url(#master_svg0_0_1343)" fill-opacity="0.5600000023841858"/><path d="M724,0L724,24L1448,24L1447.208,23L1429,0L724,0ZM725,1L725,23L1445.933,23L1428.516,1L725,1Z" fill-rule="evenodd" fill="url(#master_svg1_0_1345)" fill-opacity="1"/></g></svg>