<svg xmlns="http://www.w3.org/2000/svg" xmlns:xlink="http://www.w3.org/1999/xlink" fill="none" version="1.1" width="538" height="75" viewBox="0 0 538 75"><defs><linearGradient x1="0.5" y1="-3.0616171314629196e-17" x2="0.5" y2="1" id="master_svg0_0_1357"><stop offset="0%" stop-color="#0D34FF" stop-opacity="1"/><stop offset="100%" stop-color="#4558B9" stop-opacity="0.17000000178813934"/></linearGradient><linearGradient x1="0.5" y1="-3.0616171314629196e-17" x2="0.5" y2="1" id="master_svg1_0_1359"><stop offset="0%" stop-color="#3C6EEF" stop-opacity="0"/><stop offset="100%" stop-color="#4461AB" stop-opacity="1"/></linearGradient></defs><g style="mix-blend-mode:passthrough"><path d="M0,0C0,0,538,0,538,0C538,0,489,60.5,489,60.5C489,60.5,413,60.5,413,60.5C413,60.5,411.904,61.9448,411.904,61.9448C405.665,70.1692,395.936,75,385.613,75C385.613,75,372.5,75,372.5,75C372.5,75,372.5,71,372.5,71C372.5,71,272.5,71,272.5,71C272.5,71,245,71,245,71C245,71,168,71,168,71C168,71,168,75,168,75C168,75,155.652,75,155.652,75C146.06,75,137.29,69.5801,133,61C133,61,133,61,133,61C133,61,47.5,61,47.5,61C47.5,61,0,0,0,0C0,0,0,0,0,0Z" fill="url(#master_svg0_0_1357)" fill-opacity="1"/><path d="M413,60.5L489,60.5L537.19,1L538,0L0,0L0.778689,1L47.5,61L133,61C137.29,69.5801,146.06,75,155.652,75L168,75L168,71L372.5,71L372.5,75L385.613,75C395.936,75,405.665,70.1692,411.904,61.9448L413,60.5ZM373.5,74L385.613,74Q393.121,74,399.845,70.6609Q406.57,67.3217,411.107,61.3404L412.503,59.5L488.523,59.5L535.903,1L2.04611,1L47.9887,60L133.618,60L133.894,60.5528Q136.985,66.7336,142.863,70.3669Q148.742,74,155.652,74L167,74L167,70L373.5,70L373.5,74Z" fill-rule="evenodd" fill="url(#master_svg1_0_1359)" fill-opacity="1"/></g></svg>