<svg xmlns="http://www.w3.org/2000/svg" xmlns:xlink="http://www.w3.org/1999/xlink" fill="none" version="1.1" width="196.5" height="52.5" viewBox="0 0 196.5 52.5"><g style="mix-blend-mode:passthrough"><path d="M0.5,3C0.5,3,0.5,0.5,0.5,0.5C0.5,0.5,71.5,48,71.5,48C71.5,48,196,48,196,48C196,48,193,52,193,52C193,52,65.5,52,65.5,52C65.5,52,42.5,37.5,42.5,37.5C42.5,37.5,42.5,31.5,42.5,31.5C42.5,31.5,0.5,3,0.5,3C0.5,3,0.5,3,0.5,3Z" fill="#7774FA" fill-opacity="1"/><path d="M42.2192,31.9137L0,3.26496L0,-0.436084L71.778,47.5844L71.5,48L71.5,47.5L197,47.5L193.25,52.5L65.3555,52.5L42,37.7759L42,31.5L42.5,31.5L42.2192,31.9137ZM42.7808,31.0863L43,31.235L43,37.5L42.5,37.5L42.7667,37.077L65.7666,51.577L65.5,52L65.5,51.5L193,51.5L193,52L192.6,51.7L195.6,47.7L196,48L196,48.5L71.3482,48.5L0.22197499999999998,0.915574L0.5,0.5L1,0.5L1,3L0.5,3L0.780751,2.58626L42.7808,31.0863Z" fill="#A4A3F2" fill-opacity="1"/></g></svg>