<svg xmlns="http://www.w3.org/2000/svg" xmlns:xlink="http://www.w3.org/1999/xlink" fill="none" version="1.1" width="213.5" height="24" viewBox="0 0 213.5 24"><defs><linearGradient x1="0.5" y1="-3.0616171314629196e-17" x2="0.5" y2="1" id="master_svg0_0_1317"><stop offset="0%" stop-color="#2562DE" stop-opacity="1"/><stop offset="100%" stop-color="#2976F8" stop-opacity="1"/></linearGradient></defs><g style="mix-blend-mode:passthrough" transform="matrix(-1,0,0,1,427,0)"><path d="M213.5,0C213.5,0,235,17,235,17C235,17,278,17,278,17C278,17,285,24,285,24C285,24,387.5,24,387.5,24C387.5,24,412,9.5,412,9.5C412,9.5,427,1,427,1C427,1,213.5,0,213.5,0C213.5,0,213.5,0,213.5,0Z" fill="url(#master_svg0_0_1317)" fill-opacity="1"/></g></svg>