<svg xmlns="http://www.w3.org/2000/svg" xmlns:xlink="http://www.w3.org/1999/xlink" fill="none" version="1.1" width="713" height="24" viewBox="0 0 713 24"><defs><linearGradient x1="0.49929872155189514" y1="3.452545866387824e-13" x2="0.49929875135421753" y2="1" id="master_svg0_0_1312"><stop offset="0%" stop-color="#1188F5" stop-opacity="1"/><stop offset="15.787678956985474%" stop-color="#0F7DFF" stop-opacity="0.41999998688697815"/><stop offset="51.82793140411377%" stop-color="#232E8B" stop-opacity="0.515625"/><stop offset="85.37026643753052%" stop-color="#5137B6" stop-opacity="0.8528965711593628"/><stop offset="100%" stop-color="#B28EFF" stop-opacity="1"/></linearGradient><linearGradient x1="0.5" y1="-3.0616171314629196e-17" x2="0.5" y2="1" id="master_svg1_0_1314"><stop offset="0%" stop-color="#5E9EFF" stop-opacity="1"/><stop offset="100%" stop-color="#7673FF" stop-opacity="1"/></linearGradient></defs><g style="mix-blend-mode:passthrough"><path d="M0,0C0,0,694,0,694,0C694,0,713,24,713,24C713,24,0,24,0,24C0,24,0,0,0,0C0,0,0,0,0,0Z" fill="url(#master_svg0_0_1312)" fill-opacity="0.5600000023841858"/><path d="M0,0L0,24L713,24L712.208,23L694,0L0,0ZM1,1L1,23L710.933,23L693.516,1L1,1Z" fill-rule="evenodd" fill="url(#master_svg1_0_1314)" fill-opacity="1"/></g></svg>