<svg xmlns="http://www.w3.org/2000/svg" xmlns:xlink="http://www.w3.org/1999/xlink" fill="none" version="1.1" width="94.50003051757812" height="13.000027656555176" viewBox="0 0 94.50003051757812 13.000027656555176"><g style="mix-blend-mode:passthrough" transform="matrix(-1,0,0,1,189.00006103515625,0)"><path d="M95.75003051757812,0C95.05967451757813,0,94.50003051757812,0.559644,94.50003051757812,1.25C94.50003051757812,1.94036,95.05967451757813,2.5,95.75003051757812,2.5C95.75003051757812,2.5,95.75003051757812,0,95.75003051757812,0C95.75003051757812,0,95.75003051757812,0,95.75003051757812,0ZM176.75003051757812,1.25C176.75003051757812,1.25,177.61313051757813,0.345806,177.61313051757813,0.345806C177.61313051757813,0.345806,177.25083051757812,0,177.25083051757812,0C177.25083051757812,0,176.75003051757812,0,176.75003051757812,0C176.75003051757812,0,176.75003051757812,1.25,176.75003051757812,1.25C176.75003051757812,1.25,176.75003051757812,1.25,176.75003051757812,1.25ZM186.88693051757812,12.6542C187.38633051757813,13.1309,188.17753051757813,13.1125,188.65423051757813,12.6131C189.13093051757812,12.1137,189.11253051757814,11.3225,188.61313051757813,10.8458C188.61313051757813,10.8458,186.88693051757812,12.6542,186.88693051757812,12.6542C186.88693051757812,12.6542,186.88693051757812,12.6542,186.88693051757812,12.6542ZM95.75003051757812,2.5C95.75003051757812,2.5,176.75003051757812,2.5,176.75003051757812,2.5C176.75003051757812,2.5,176.75003051757812,0,176.75003051757812,0C176.75003051757812,0,95.75003051757812,0,95.75003051757812,0C95.75003051757812,0,95.75003051757812,2.5,95.75003051757812,2.5C95.75003051757812,2.5,95.75003051757812,2.5,95.75003051757812,2.5ZM175.88693051757812,2.15419C175.88693051757812,2.15419,186.88693051757812,12.6542,186.88693051757812,12.6542C186.88693051757812,12.6542,188.61313051757813,10.8458,188.61313051757813,10.8458C188.61313051757813,10.8458,177.61313051757813,0.345806,177.61313051757813,0.345806C177.61313051757813,0.345806,175.88693051757812,2.15419,175.88693051757812,2.15419C175.88693051757812,2.15419,175.88693051757812,2.15419,175.88693051757812,2.15419Z" fill="#5089DF" fill-opacity="1"/></g></svg>